<svg width="193" height="45" viewBox="0 0 193 45" fill="none" xmlns="http://www.w3.org/2000/svg">
<path d="M50.2943 7.90301C48.4184 6.02719 46.1915 4.53921 43.7406 3.52402C41.2898 2.50884 38.6629 1.98633 36.0101 1.98633C33.3573 1.98633 30.7305 2.50884 28.2796 3.52402C25.8287 4.53921 23.6018 6.02719 21.726 7.90301C19.8502 9.77883 18.3622 12.0058 17.347 14.4566C16.3318 16.9075 15.8093 19.5343 15.8093 22.1871C15.8093 24.84 16.3318 27.4668 17.347 29.9177C18.3622 32.3685 19.8502 34.5955 21.726 36.4713L36.0101 22.1871L50.2943 7.90301Z" fill="#F53D5C"/>
<path d="M21.726 36.4713C23.6018 38.3471 25.8287 39.8351 28.2796 40.8502C30.7305 41.8654 33.3573 42.3879 36.0101 42.3879C38.6629 42.3879 41.2898 41.8654 43.7406 40.8502C46.1915 39.8351 48.4184 38.3471 50.2943 36.4713C52.1701 34.5954 53.6581 32.3685 54.6732 29.9176C55.6884 27.4668 56.2109 24.8399 56.2109 22.1871C56.2109 19.5343 55.6884 16.9075 54.6732 14.4566C53.6581 12.0057 52.1701 9.77882 50.2943 7.903L36.0101 22.1871L21.726 36.4713Z" fill="#2D8AEA"/>
<path fill-rule="evenodd" clip-rule="evenodd" d="M69.1518 2.84816C65.3543 -0.949384 59.1973 -0.949387 55.3997 2.84816L50.3195 7.92833C52.1835 9.79886 53.6626 12.0168 54.6733 14.4566C55.6884 16.9075 56.2109 19.5343 56.2109 22.1871C56.2109 24.8399 55.6884 27.4668 54.6733 29.9176C54.4497 30.4573 54.2032 30.9861 53.9348 31.5027C54.5112 31.1324 55.057 30.6951 55.5612 30.1909L69.1518 16.6003C72.9494 12.8027 72.9494 6.6457 69.1518 2.84816Z" fill="#49C9EC"/>
<path fill-rule="evenodd" clip-rule="evenodd" d="M2.84816 41.766C6.6457 45.5635 12.8027 45.5636 16.6003 41.766L21.6805 36.6858C19.8166 34.8153 18.3374 32.5974 17.3268 30.1575C16.3116 27.7067 15.7891 25.0798 15.7891 22.427C15.7891 19.7742 16.3116 17.1474 17.3268 14.6965C17.5503 14.1568 17.7968 13.628 18.0653 13.1114C17.4889 13.4817 16.943 13.919 16.4388 14.4233L2.84816 28.0139C-0.949385 31.8114 -0.949386 37.9685 2.84816 41.766Z" fill="#FF9F00"/>
<path d="M44.072 38C42.936 38 42.048 37.84 41.408 37.52C40.768 37.2 40.32 36.72 40.064 36.08C39.808 35.44 39.68 34.648 39.68 33.704V28.352C39.68 26.816 40.024 25.688 40.712 24.968C41.4 24.232 42.52 23.864 44.072 23.864H51.296C52.4 23.864 53.24 23.928 53.816 24.056C54.408 24.168 54.704 24.288 54.704 24.416L54.224 26.408C53.952 26.36 53.144 26.312 51.8 26.264C50.472 26.2 48.536 26.168 45.992 26.168H44.768C43.488 26.168 42.848 26.736 42.848 27.872V33.992C42.848 34.536 42.984 34.96 43.256 35.264C43.544 35.552 44.048 35.696 44.768 35.696H45.752C48.408 35.696 50.464 35.672 51.92 35.624C53.392 35.56 54.304 35.496 54.656 35.432L55.64 37.016C55.64 37.096 55.504 37.216 55.232 37.376C54.976 37.536 54.496 37.68 53.792 37.808C53.088 37.936 52.072 38 50.744 38H44.072ZM58.9972 38V23.888H62.1652V29.744H71.5732V23.888H74.7412V38H71.5732V32.048H62.1652V38H58.9972ZM94.8869 38.24C94.2469 38.24 93.6149 38.144 92.9909 37.952C92.3829 37.744 91.6869 37.248 90.9029 36.464L89.1749 34.736C88.4709 34.016 87.6949 33.488 86.8469 33.152C86.0149 32.816 84.9669 32.648 83.7029 32.648H82.9589V38H79.7909V25.808L79.5509 23.864H90.1829C91.2069 23.864 92.0069 24 92.5829 24.272C93.1749 24.544 93.6069 24.904 93.8789 25.352C94.1669 25.784 94.3509 26.248 94.4309 26.744C94.5109 27.24 94.5509 27.712 94.5509 28.16V28.616C94.5509 28.968 94.5029 29.36 94.4069 29.792C94.3109 30.224 94.1269 30.648 93.8549 31.064C93.5829 31.48 93.1909 31.832 92.6789 32.12C92.1829 32.408 91.5269 32.576 90.7109 32.624C90.9189 32.736 91.1829 32.912 91.5029 33.152C91.8229 33.376 92.1509 33.624 92.4869 33.896C92.8389 34.168 93.1589 34.416 93.4469 34.64C93.7349 34.864 93.9589 35.024 94.1189 35.12C94.6949 35.456 95.2069 35.688 95.6549 35.816C96.1029 35.944 96.4709 36.016 96.7589 36.032C97.0469 36.048 97.2149 36.056 97.2629 36.056L96.7829 38C96.6389 38.048 96.3989 38.096 96.0629 38.144C95.7269 38.208 95.3349 38.24 94.8869 38.24ZM86.5589 30.464C87.1669 30.464 87.7109 30.456 88.1909 30.44C88.6709 30.408 89.1029 30.376 89.4869 30.344C90.1909 30.264 90.6789 30.072 90.9509 29.768C91.2389 29.448 91.3829 29.04 91.3829 28.544V27.992C91.3829 27.48 91.2469 27.048 90.9749 26.696C90.7029 26.344 90.2149 26.168 89.5109 26.168H82.9589V30.344C83.6629 30.392 84.3109 30.424 84.9029 30.44C85.4949 30.456 86.0469 30.464 86.5589 30.464ZM104.538 38C103.418 38 102.538 37.84 101.898 37.52C101.258 37.2 100.802 36.72 100.53 36.08C100.274 35.44 100.146 34.648 100.146 33.704V28.16C100.146 27.232 100.274 26.456 100.53 25.832C100.786 25.192 101.234 24.712 101.874 24.392C102.514 24.056 103.402 23.888 104.538 23.888H111.546C112.666 23.888 113.538 24.056 114.162 24.392C114.802 24.712 115.25 25.192 115.506 25.832C115.778 26.456 115.914 27.232 115.914 28.16V33.704C115.914 35.112 115.602 36.184 114.978 36.92C114.354 37.64 113.21 38 111.546 38H104.538ZM105.234 35.696H110.874C111.466 35.696 111.922 35.544 112.242 35.24C112.578 34.936 112.746 34.52 112.746 33.992V27.872C112.746 27.408 112.578 27.016 112.242 26.696C111.906 26.36 111.45 26.192 110.874 26.192H105.234C104.658 26.192 104.194 26.344 103.842 26.648C103.49 26.952 103.314 27.36 103.314 27.872V33.992C103.314 34.536 103.482 34.96 103.818 35.264C104.17 35.552 104.642 35.696 105.234 35.696ZM120.711 38V25.808L120.471 23.888H124.119L129.543 33.488L135.159 23.888H138.399V38H135.231V29.048H134.967L134.031 31.136L131.007 36.56H128.103L125.079 31.136L124.119 29.048H123.879V38H120.711ZM143.444 38V25.808L143.204 23.888H146.66L154.82 32.432L155.756 33.728H156.02V23.888H159.188V38H156.14L147.788 29.312L146.852 28.184H146.612V38H143.444ZM163.993 38V23.888H167.161V38H163.993ZM170.28 38L171.192 36.56L176.52 30.944L170.28 23.888H174.12L178.752 29.192H179.016L183.672 23.888H187.512L186.576 25.304L181.272 30.944L187.512 38H183.672L179.016 32.648H178.752L174.12 38H170.28Z" fill="#1C1C1C"/>
</svg>
