<svg width="72" height="45" viewBox="0 0 72 45" fill="none" xmlns="http://www.w3.org/2000/svg">
<path d="M50.2943 7.90301C48.4184 6.02719 46.1915 4.53921 43.7406 3.52402C41.2898 2.50884 38.6629 1.98633 36.0101 1.98633C33.3573 1.98633 30.7305 2.50884 28.2796 3.52402C25.8287 4.53921 23.6018 6.02719 21.726 7.90301C19.8502 9.77883 18.3622 12.0058 17.347 14.4566C16.3318 16.9075 15.8093 19.5343 15.8093 22.1871C15.8093 24.84 16.3318 27.4668 17.347 29.9177C18.3622 32.3685 19.8502 34.5955 21.726 36.4713L36.0101 22.1871L50.2943 7.90301Z" fill="#F53D5C"/>
<path d="M21.726 36.4713C23.6018 38.3471 25.8287 39.8351 28.2796 40.8502C30.7305 41.8654 33.3573 42.3879 36.0101 42.3879C38.6629 42.3879 41.2898 41.8654 43.7406 40.8502C46.1915 39.8351 48.4184 38.3471 50.2943 36.4713C52.1701 34.5954 53.6581 32.3685 54.6732 29.9176C55.6884 27.4668 56.2109 24.8399 56.2109 22.1871C56.2109 19.5343 55.6884 16.9075 54.6732 14.4566C53.6581 12.0057 52.1701 9.77882 50.2943 7.903L36.0101 22.1871L21.726 36.4713Z" fill="#2D8AEA"/>
<path fill-rule="evenodd" clip-rule="evenodd" d="M69.1518 2.84816C65.3543 -0.949384 59.1973 -0.949387 55.3997 2.84816L50.3195 7.92833C52.1835 9.79886 53.6626 12.0168 54.6733 14.4566C55.6884 16.9075 56.2109 19.5343 56.2109 22.1871C56.2109 24.8399 55.6884 27.4668 54.6733 29.9176C54.4497 30.4573 54.2032 30.9861 53.9348 31.5027C54.5112 31.1324 55.057 30.6951 55.5612 30.1909L69.1518 16.6003C72.9494 12.8027 72.9494 6.6457 69.1518 2.84816Z" fill="#49C9EC"/>
<path fill-rule="evenodd" clip-rule="evenodd" d="M2.84816 41.766C6.6457 45.5635 12.8027 45.5636 16.6003 41.766L21.6805 36.6858C19.8166 34.8153 18.3374 32.5974 17.3268 30.1575C16.3116 27.7067 15.7891 25.0798 15.7891 22.427C15.7891 19.7742 16.3116 17.1474 17.3268 14.6965C17.5503 14.1568 17.7968 13.628 18.0653 13.1114C17.4889 13.4817 16.943 13.919 16.4388 14.4233L2.84816 28.0139C-0.949385 31.8114 -0.949386 37.9685 2.84816 41.766Z" fill="#FF9F00"/>
</svg>
